<svg width="98" height="478" viewBox="0 0 98 478" fill="none" xmlns="http://www.w3.org/2000/svg">
<g filter="url(#filter0_d_8_12)">
<path d="M84.9689 443.446C87.6678 443.446 89.8477 444.686 91.5086 447.164C93.1695 449.642 94 453.006 94 457.254C94 461.149 93.1695 464.158 91.5086 466.283C90.0554 468.761 87.8754 470 84.9689 470H64.4152C55.0727 470 48.0138 465.751 43.2388 457.254C38.4637 448.757 36.0761 436.542 36.0761 420.61V291.559C36.0761 277.043 34.3114 266.422 30.782 259.695C27.4602 252.968 21.5432 249.25 13.0311 248.542C7.01038 247.48 4 242.878 4 234.734C4 231.194 4.72664 228.185 6.17993 225.706C7.84083 223.228 10.1246 221.812 13.0311 221.458C21.5432 220.396 27.4602 216.501 30.782 209.774C34.3114 203.047 36.0761 192.426 36.0761 177.91V49.3898C36.0761 33.4576 38.4637 21.243 43.2388 12.7458C48.0138 4.24859 55.0727 0 64.4152 0H84.9689C87.8754 0 90.0554 1.23918 91.5086 3.71753C93.1695 5.84182 94 8.85123 94 12.7458C94 16.9944 93.1695 20.3578 91.5086 22.8361C89.8477 25.3145 87.6678 26.5537 84.9689 26.5537H68.4637C59.3287 26.5537 54.7612 34.6968 54.7612 50.9831V181.096C54.7612 196.32 52.5813 208.535 48.2214 217.74C44.0692 226.591 38.8789 232.256 32.6505 234.734C38.8789 237.213 44.0692 243.055 48.2214 252.26C52.5813 261.111 54.7612 273.149 54.7612 288.373V419.017C54.7612 435.303 59.3287 443.446 68.4637 443.446H84.9689Z" fill="#DBEAF7"/>
</g>
<defs>
<filter id="filter0_d_8_12" x="0" y="0" width="98" height="478" filterUnits="userSpaceOnUse" color-interpolation-filters="sRGB">
<feFlood flood-opacity="0" result="BackgroundImageFix"/>
<feColorMatrix in="SourceAlpha" type="matrix" values="0 0 0 0 0 0 0 0 0 0 0 0 0 0 0 0 0 0 127 0" result="hardAlpha"/>
<feOffset dy="4"/>
<feGaussianBlur stdDeviation="2"/>
<feComposite in2="hardAlpha" operator="out"/>
<feColorMatrix type="matrix" values="0 0 0 0 0 0 0 0 0 0 0 0 0 0 0 0 0 0 0.25 0"/>
<feBlend mode="normal" in2="BackgroundImageFix" result="effect1_dropShadow_8_12"/>
<feBlend mode="normal" in="SourceGraphic" in2="effect1_dropShadow_8_12" result="shape"/>
</filter>
</defs>
</svg>
