<svg width="90" height="470" viewBox="0 0 90 470" fill="none" xmlns="http://www.w3.org/2000/svg">
<path d="M80.9375 221.458C86.9792 221.812 90 226.237 90 234.734C90 242.878 86.9792 247.48 80.9375 248.542C72.6042 249.25 66.7708 252.968 63.4375 259.695C60.3125 266.068 58.75 276.689 58.75 291.559L58.125 420.61C58.125 436.542 55.7292 448.757 50.9375 457.254C46.1458 465.751 39.0625 470 29.6875 470H9.0625C6.14583 470 3.85417 468.761 2.1875 466.283C0.729167 464.158 0 461.149 0 457.254C0 453.006 0.833333 449.642 2.5 447.164C4.16667 444.685 6.35417 443.446 9.0625 443.446H25.625C34.7917 443.446 39.375 435.303 39.375 419.017V288.373C39.375 273.149 41.4583 261.111 45.625 252.26C50 243.055 55.2083 237.213 61.25 234.734C55.2083 232.256 50 226.591 45.625 217.74C41.4583 208.535 39.375 196.32 39.375 181.096V50.9831C39.375 34.6968 34.7917 26.5537 25.625 26.5537H9.0625C6.35417 26.5537 4.16667 25.3145 2.5 22.8361C0.833333 20.3578 0 16.9944 0 12.7458C0 8.85123 0.729167 5.84182 2.1875 3.71753C3.85417 1.23918 6.14583 0 9.0625 0H29.6875C39.0625 0 46.1458 4.24859 50.9375 12.7458C55.7292 21.243 58.125 33.4576 58.125 49.3898V177.91C58.125 192.426 59.7917 203.047 63.125 209.774C66.4583 216.501 72.3958 220.395 80.9375 221.458Z" fill="#DBEAF7"/>
</svg>
